<?xml version="1.0" encoding="utf-8"?>
<!-- Generator: Adobe Illustrator 26.0.1, SVG Export Plug-In . SVG Version: 6.00 Build 0)  -->
<svg version="1.1" id="ëÎÓÈ_1" xmlns="http://www.w3.org/2000/svg" xmlns:xlink="http://www.w3.org/1999/xlink" x="0px" y="0px"
	 viewBox="0 0 1190.08 1190.08" style="enable-background:new 0 0 1190.08 1190.08;" xml:space="preserve">
<style type="text/css">
	.st0{fill:#ffffff26;}
</style>
<g>
	<path class="st0" d="M273.05,17.36c0-9.74-7.19-17.09-16.71-17.09l-191.39,0c-11.44,0-25.68,0-38.61,8.03
		C10.85,17.92,1.12,34.64,0.31,53.03c-0.08,1.9-0.07,3.76-0.05,5.56c0.01,0.71,0.01,1.42,0.01,2.13v102.03
		c0,10.24-0.07,20.59-0.14,30.6C0,213.51-0.14,234.33,0.27,254.82c0.01,0.29,0,0.56,0,0.84l0,0.73c0,9.47,7.35,16.66,17.1,16.66
		c4.34,0,8.44-1.47,11.54-4.13c3.63-3.12,5.55-7.47,5.55-12.59V70.59c0-1.78-0.05-3.63-0.1-5.43c-0.25-8.57-0.23-14.5,2.14-19.27
		c3.5-7.03,10.45-11.3,18.59-11.43c0.85-0.01,1.7-0.02,2.55-0.02c0.42,0,1.5,0,2.6,0.01c1.1,0,2.21,0.01,2.66,0.01h103.15
		c9.84,0,19.85,0.08,29.53,0.16c9.68,0.08,19.68,0.16,29.66,0.16c11.11,0,20.85-0.1,29.79-0.31l0.18,0l1.2,0.01
		C265.87,34.46,273.05,27.11,273.05,17.36z"/>
	<path class="st0" d="M1172.72,273.05L1172.72,273.05c4.34,0,8.44-1.47,11.54-4.13c3.63-3.12,5.55-7.47,5.55-12.59V66.28
		c0.01-13.27,0.02-26.98-8.03-39.94c-9.61-15.49-26.33-25.22-44.72-26.03c-0.99-0.04-2.05-0.06-3.32-0.06
		c-0.75,0-1.49,0.01-2.24,0.01l-0.26,0c-0.62,0.01-1.25,0.01-1.87,0.01h-102.03c-10.02,0-20.23-0.07-30.1-0.13l-0.5,0
		C986.69,0.07,976.31,0,966.02,0c-11.5,0-21.56,0.09-30.76,0.27l-0.14,0l-1.41,0c-9.5,0-16.68,7.35-16.68,17.1
		c0,9.74,7.19,17.09,16.71,17.09h185.75c1.79,0,3.67-0.05,5.47-0.1c1.94-0.06,3.76-0.11,5.62-0.11c6.37,0,10.44,0.67,13.61,2.25
		c7.02,3.49,11.3,10.44,11.42,18.58c0.02,1.63,0.02,3.26,0.01,4.89l0,0.26c0,0.9-0.01,1.78-0.01,2.67v103.15
		c0,9.91-0.08,19.88-0.15,29.53c-0.15,19.45-0.31,39.57,0.16,59.37l0,0.18l-0.01,1.27C1155.61,265.87,1162.97,273.05,1172.72,273.05
		z"/>
	<path class="st0" d="M53.03,1189.77c1.01,0.04,2.07,0.06,3.32,0.06c0.66,0,1.32-0.01,1.99-0.01l0.51,0c0.62,0,1.25-0.01,1.87-0.01
		h102.03c10.24,0,20.59,0.07,30.6,0.14c10.04,0.07,20.42,0.14,30.71,0.14c11.54,0,21.61-0.09,30.78-0.27l0.29,0l1.25,0
		c9.49,0,16.68-7.35,16.68-17.1c0-9.74-7.19-17.09-16.71-17.09H70.59c-1.76,0-3.6,0.05-5.38,0.1l-0.11,0
		c-1.82,0.05-3.71,0.11-5.6,0.11c-6.37,0-10.44-0.67-13.6-2.25c-7.03-3.5-11.3-10.45-11.43-18.59c-0.03-1.65-0.02-3.3-0.01-4.95
		l0-0.44c0-0.81,0.01-1.61,0.01-2.42v-103.15c0-9.85,0.08-19.85,0.16-29.53c0.15-19.47,0.31-39.58-0.16-59.37l0-0.18l0.01-1.27
		c0-9.47-7.35-16.66-17.1-16.66c-9.74,0-17.09,7.19-17.09,16.72l0,190.06c-0.01,13.27-0.02,26.97,8.03,39.94
		C17.92,1179.23,34.64,1188.96,53.03,1189.77z"/>
	<path class="st0" d="M1189.94,996.73l0-0.14c0.13-20.1,0.27-40.88-0.14-61.33c-0.01-0.31,0-0.61,0-0.91l0-0.67
		c0-9.47-7.35-16.66-17.1-16.66c-9.74,0-17.09,7.19-17.09,16.72v185.75c0,1.76,0.05,3.6,0.1,5.39l0,0.11
		c0.24,8.51,0.23,14.44-2.14,19.2c-3.5,7.03-10.45,11.31-18.59,11.43c-0.85,0.01-1.7,0.02-2.54,0.02c-0.42,0-1.51,0-2.61-0.01
		c-1.09,0-2.21-0.01-2.66-0.01h-103.15c-9.91,0-19.88-0.08-29.53-0.15c-9.68-0.08-19.68-0.16-29.66-0.16
		c-11.08,0-20.82,0.1-29.79,0.31l-0.18,0l-1.19-0.01c-9.47,0-16.66,7.35-16.66,17.1c0,9.74,7.19,17.09,16.71,17.09l191.47,0
		c11.4,0,25.59,0,38.53-8.03c15.49-9.62,25.22-26.33,26.03-44.72c0.08-1.89,0.07-3.74,0.05-5.54c-0.01-0.73-0.01-1.44-0.01-2.15
		v-102.03C1189.8,1017.09,1189.87,1006.74,1189.94,996.73z"/>
</g>
</svg>
